<mxfile host="app.diagrams.net" agent="Mozilla/5.0 (Windows NT 10.0; Win64; x64) AppleWebKit/537.36 (KHTML, like Gecko) Chrome/136.0.0.0 Safari/537.36" version="26.1.3">
  <diagram name="Página-1" id="FGdMUC5uEWH-ipTQfWdJ">
    <mxGraphModel dx="1434" dy="738" grid="1" gridSize="10" guides="1" tooltips="1" connect="1" arrows="1" fold="1" page="1" pageScale="1" pageWidth="827" pageHeight="1169" math="0" shadow="0">
      <root>
        <mxCell id="0" />
        <mxCell id="1" parent="0" />
        <mxCell id="I3O4Nhu3E_oi3L7Ds6Jt-1" value="" style="verticalLabelPosition=bottom;verticalAlign=top;html=1;shape=mxgraph.basic.rect;fillColor2=none;strokeWidth=1;size=20;indent=5;movable=1;resizable=1;rotatable=1;deletable=1;editable=1;locked=0;connectable=1;shadow=0;aspect=fixed;" vertex="1" parent="1">
          <mxGeometry x="10" y="20" width="1920" height="1080" as="geometry" />
        </mxCell>
        <mxCell id="I3O4Nhu3E_oi3L7Ds6Jt-3" value="" style="verticalLabelPosition=bottom;verticalAlign=top;html=1;shape=mxgraph.basic.rect;fillColor2=none;strokeWidth=1;size=20;indent=5;strokeColor=#666666;fillColor=#f5f5f5;fontColor=#333333;movable=1;resizable=1;rotatable=1;deletable=1;editable=1;locked=0;connectable=1;shadow=1;" vertex="1" parent="1">
          <mxGeometry x="10" y="20" width="1920" height="128" as="geometry" />
        </mxCell>
        <mxCell id="I3O4Nhu3E_oi3L7Ds6Jt-6" value="" style="verticalLabelPosition=bottom;verticalAlign=top;html=1;shadow=0;dashed=0;strokeWidth=1;shape=mxgraph.android.phone2;fillColor=#647687;strokeColor=#314354;fontColor=#ffffff;movable=1;resizable=1;rotatable=1;deletable=1;editable=1;locked=0;connectable=1;" vertex="1" parent="1">
          <mxGeometry x="30" y="1190" width="569.23" height="1550" as="geometry" />
        </mxCell>
        <mxCell id="I3O4Nhu3E_oi3L7Ds6Jt-7" value="" style="rounded=0;whiteSpace=wrap;html=1;fillColor=default;strokeColor=none;movable=1;resizable=1;rotatable=1;deletable=1;editable=1;locked=0;connectable=1;" vertex="1" parent="1">
          <mxGeometry x="53" y="1290" width="526" height="1310" as="geometry" />
        </mxCell>
        <mxCell id="I3O4Nhu3E_oi3L7Ds6Jt-8" value="" style="verticalLabelPosition=bottom;shadow=0;dashed=0;align=center;html=1;verticalAlign=top;strokeWidth=1;shape=mxgraph.mockup.graphics.simpleIcon;strokeColor=#999999;aspect=fixed;" vertex="1" parent="1">
          <mxGeometry x="125.5" y="36" width="96" height="96" as="geometry" />
        </mxCell>
        <mxCell id="I3O4Nhu3E_oi3L7Ds6Jt-17" value="" style="group" vertex="1" connectable="0" parent="1">
          <mxGeometry x="236" y="36" width="260" height="96" as="geometry" />
        </mxCell>
        <mxCell id="I3O4Nhu3E_oi3L7Ds6Jt-14" value="&lt;font style=&quot;font-size: 24px;&quot;&gt;Chamber Of Commerce&lt;/font&gt;" style="text;html=1;align=center;verticalAlign=middle;whiteSpace=wrap;rounded=0;" vertex="1" parent="I3O4Nhu3E_oi3L7Ds6Jt-17">
          <mxGeometry y="66" width="260" height="30" as="geometry" />
        </mxCell>
        <mxCell id="I3O4Nhu3E_oi3L7Ds6Jt-15" value="&lt;font style=&quot;font-size: 48px;&quot;&gt;[C³] Curitiba&lt;/font&gt;" style="text;html=1;align=center;verticalAlign=middle;whiteSpace=wrap;rounded=0;" vertex="1" parent="I3O4Nhu3E_oi3L7Ds6Jt-17">
          <mxGeometry width="260" height="64" as="geometry" />
        </mxCell>
        <mxCell id="I3O4Nhu3E_oi3L7Ds6Jt-26" value="" style="group" vertex="1" connectable="0" parent="1">
          <mxGeometry x="1472" y="102" width="344" height="30" as="geometry" />
        </mxCell>
        <mxCell id="I3O4Nhu3E_oi3L7Ds6Jt-18" value="&lt;font style=&quot;font-size: 24px;&quot;&gt;Home&lt;/font&gt;" style="text;html=1;align=center;verticalAlign=middle;whiteSpace=wrap;rounded=0;spacing=2;" vertex="1" parent="I3O4Nhu3E_oi3L7Ds6Jt-26">
          <mxGeometry width="70" height="30" as="geometry" />
        </mxCell>
        <mxCell id="I3O4Nhu3E_oi3L7Ds6Jt-19" value="&lt;font style=&quot;font-size: 24px;&quot;&gt;Directory&lt;/font&gt;" style="text;html=1;align=center;verticalAlign=middle;whiteSpace=wrap;rounded=0;fontStyle=1;fontColor=#4D4D4D;spacing=2;" vertex="1" parent="I3O4Nhu3E_oi3L7Ds6Jt-26">
          <mxGeometry x="78" width="110" height="30" as="geometry" />
        </mxCell>
        <mxCell id="I3O4Nhu3E_oi3L7Ds6Jt-20" value="&lt;font style=&quot;font-size: 24px;&quot;&gt;Join&lt;/font&gt;" style="text;html=1;align=center;verticalAlign=middle;whiteSpace=wrap;rounded=0;spacing=2;" vertex="1" parent="I3O4Nhu3E_oi3L7Ds6Jt-26">
          <mxGeometry x="196" width="40" height="30" as="geometry" />
        </mxCell>
        <mxCell id="I3O4Nhu3E_oi3L7Ds6Jt-21" value="&lt;font style=&quot;font-size: 24px;&quot;&gt;Discover&lt;/font&gt;" style="text;html=1;align=center;verticalAlign=middle;whiteSpace=wrap;rounded=0;spacing=2;" vertex="1" parent="I3O4Nhu3E_oi3L7Ds6Jt-26">
          <mxGeometry x="244" width="100" height="30" as="geometry" />
        </mxCell>
        <mxCell id="I3O4Nhu3E_oi3L7Ds6Jt-32" value="" style="rounded=0;whiteSpace=wrap;html=1;fillColor=#f5f5f5;strokeColor=#666666;fontColor=#333333;" vertex="1" parent="1">
          <mxGeometry x="125.5" y="280" width="1694.5" height="1" as="geometry" />
        </mxCell>
        <mxCell id="I3O4Nhu3E_oi3L7Ds6Jt-35" value="" style="group" vertex="1" connectable="0" parent="1">
          <mxGeometry x="650" y="196" width="579" height="52" as="geometry" />
        </mxCell>
        <mxCell id="I3O4Nhu3E_oi3L7Ds6Jt-29" value="&lt;font style=&quot;font-size: 56px;&quot;&gt;Business Directory&lt;/font&gt;" style="text;html=1;align=center;verticalAlign=middle;whiteSpace=wrap;rounded=0;fontStyle=1" vertex="1" parent="I3O4Nhu3E_oi3L7Ds6Jt-35">
          <mxGeometry x="64" width="515" height="52" as="geometry" />
        </mxCell>
        <mxCell id="I3O4Nhu3E_oi3L7Ds6Jt-33" value="" style="verticalLabelPosition=bottom;shadow=0;dashed=0;align=center;html=1;verticalAlign=top;strokeWidth=1;shape=mxgraph.mockup.graphics.simpleIcon;strokeColor=#999999;aspect=fixed;" vertex="1" parent="I3O4Nhu3E_oi3L7Ds6Jt-35">
          <mxGeometry y="2" width="48" height="48" as="geometry" />
        </mxCell>
        <mxCell id="I3O4Nhu3E_oi3L7Ds6Jt-37" value="&lt;h1 style=&quot;margin-top: 0px;&quot;&gt;&lt;font style=&quot;font-size: 32px;&quot;&gt;Meet Our Members&lt;/font&gt;&lt;/h1&gt;&lt;div&gt;&lt;font style=&quot;font-size: 24px;&quot;&gt;Check out the members of C³ Curitiba Chamber of Commerce and grow with us.&lt;/font&gt;&lt;/div&gt;" style="text;html=1;whiteSpace=wrap;overflow=hidden;rounded=0;" vertex="1" parent="1">
          <mxGeometry x="125.5" y="296" width="1694.5" height="94" as="geometry" />
        </mxCell>
        <mxCell id="I3O4Nhu3E_oi3L7Ds6Jt-39" value="" style="verticalLabelPosition=bottom;verticalAlign=top;html=1;shape=mxgraph.basic.rect;fillColor2=none;strokeWidth=1;size=20;indent=5;strokeColor=#666666;fillColor=#f5f5f5;fontColor=#333333;movable=1;resizable=1;rotatable=1;deletable=1;editable=1;locked=0;connectable=1;shadow=1;" vertex="1" parent="1">
          <mxGeometry x="10" y="960" width="1920" height="140" as="geometry" />
        </mxCell>
        <mxCell id="I3O4Nhu3E_oi3L7Ds6Jt-62" value="" style="group" vertex="1" connectable="0" parent="1">
          <mxGeometry x="125.5" y="467" width="405" height="361" as="geometry" />
        </mxCell>
        <mxCell id="I3O4Nhu3E_oi3L7Ds6Jt-42" value="" style="rounded=0;whiteSpace=wrap;html=1;" vertex="1" parent="I3O4Nhu3E_oi3L7Ds6Jt-62">
          <mxGeometry y="11" width="300" height="350" as="geometry" />
        </mxCell>
        <mxCell id="I3O4Nhu3E_oi3L7Ds6Jt-58" value="" style="group" vertex="1" connectable="0" parent="I3O4Nhu3E_oi3L7Ds6Jt-62">
          <mxGeometry x="16.319999999999993" y="311" width="267.37" height="32" as="geometry" />
        </mxCell>
        <mxCell id="I3O4Nhu3E_oi3L7Ds6Jt-52" value="Visit Website" style="rounded=1;whiteSpace=wrap;html=1;" vertex="1" parent="I3O4Nhu3E_oi3L7Ds6Jt-58">
          <mxGeometry width="267.37" height="32" as="geometry" />
        </mxCell>
        <mxCell id="I3O4Nhu3E_oi3L7Ds6Jt-57" value="" style="verticalLabelPosition=bottom;shadow=0;dashed=0;align=center;html=1;verticalAlign=top;strokeWidth=1;shape=mxgraph.mockup.graphics.simpleIcon;strokeColor=#999999;aspect=fixed;" vertex="1" parent="I3O4Nhu3E_oi3L7Ds6Jt-58">
          <mxGeometry x="78.18" y="8" width="16" height="16" as="geometry" />
        </mxCell>
        <mxCell id="I3O4Nhu3E_oi3L7Ds6Jt-59" value="" style="group" vertex="1" connectable="0" parent="I3O4Nhu3E_oi3L7Ds6Jt-62">
          <mxGeometry x="14.5" y="241" width="150" height="60" as="geometry" />
        </mxCell>
        <mxCell id="I3O4Nhu3E_oi3L7Ds6Jt-50" value="&lt;font&gt;&lt;b&gt;Phone: &lt;/b&gt;300-43265&lt;/font&gt;" style="text;html=1;align=left;verticalAlign=middle;whiteSpace=wrap;rounded=0;" vertex="1" parent="I3O4Nhu3E_oi3L7Ds6Jt-59">
          <mxGeometry width="110" height="20" as="geometry" />
        </mxCell>
        <mxCell id="I3O4Nhu3E_oi3L7Ds6Jt-51" value="&lt;b&gt;Address: &lt;/b&gt;Street Nº, District" style="text;html=1;align=left;verticalAlign=middle;whiteSpace=wrap;rounded=0;" vertex="1" parent="I3O4Nhu3E_oi3L7Ds6Jt-59">
          <mxGeometry y="20" width="150" height="20" as="geometry" />
        </mxCell>
        <mxCell id="I3O4Nhu3E_oi3L7Ds6Jt-53" value="&lt;b&gt;Department: &lt;/b&gt;Gastronomy" style="text;html=1;align=left;verticalAlign=middle;whiteSpace=wrap;rounded=0;" vertex="1" parent="I3O4Nhu3E_oi3L7Ds6Jt-59">
          <mxGeometry y="40" width="150" height="20" as="geometry" />
        </mxCell>
        <mxCell id="I3O4Nhu3E_oi3L7Ds6Jt-60" value="" style="group" vertex="1" connectable="0" parent="I3O4Nhu3E_oi3L7Ds6Jt-62">
          <mxGeometry x="10.25" y="151" width="279.5" height="80.17999999999995" as="geometry" />
        </mxCell>
        <mxCell id="I3O4Nhu3E_oi3L7Ds6Jt-45" value="&lt;div&gt;Lorem ipsum dolor sit amet consectetur, adipisicing elit. Architecto, suscipit atque nemo, dignissimos consectetur odit sapiente sequi aperiam accusamus sunt quae obcaecati exercitationem fugit blanditiis nesciunt et iste, dolores voluptas.&lt;/div&gt;" style="text;html=1;align=center;verticalAlign=middle;whiteSpace=wrap;rounded=0;" vertex="1" parent="I3O4Nhu3E_oi3L7Ds6Jt-60">
          <mxGeometry width="279.5" height="70" as="geometry" />
        </mxCell>
        <mxCell id="I3O4Nhu3E_oi3L7Ds6Jt-49" value="" style="rounded=0;whiteSpace=wrap;html=1;fillColor=#f5f5f5;strokeColor=#666666;fontColor=#333333;" vertex="1" parent="I3O4Nhu3E_oi3L7Ds6Jt-60">
          <mxGeometry x="4.25" y="80" width="275.25" height="0.18" as="geometry" />
        </mxCell>
        <mxCell id="I3O4Nhu3E_oi3L7Ds6Jt-61" value="" style="group" vertex="1" connectable="0" parent="I3O4Nhu3E_oi3L7Ds6Jt-62">
          <mxGeometry width="405" height="177" as="geometry" />
        </mxCell>
        <mxCell id="I3O4Nhu3E_oi3L7Ds6Jt-43" value="" style="verticalLabelPosition=bottom;shadow=0;dashed=0;align=center;html=1;verticalAlign=top;strokeWidth=1;shape=mxgraph.mockup.graphics.simpleIcon;strokeColor=#999999;" vertex="1" parent="I3O4Nhu3E_oi3L7Ds6Jt-61">
          <mxGeometry y="11" width="300" height="128" as="geometry" />
        </mxCell>
        <mxCell id="I3O4Nhu3E_oi3L7Ds6Jt-44" value="&lt;b&gt;&lt;font style=&quot;font-size: 24px;&quot;&gt;Business Name&lt;/font&gt;&lt;/b&gt;" style="text;html=1;align=center;verticalAlign=middle;whiteSpace=wrap;rounded=0;" vertex="1" parent="I3O4Nhu3E_oi3L7Ds6Jt-61">
          <mxGeometry x="40" y="101" width="220" height="30" as="geometry" />
        </mxCell>
        <mxCell id="I3O4Nhu3E_oi3L7Ds6Jt-46" value="&lt;font style=&quot;font-size: 10px;&quot;&gt;Level&lt;/font&gt;" style="ellipse;whiteSpace=wrap;html=1;aspect=fixed;" vertex="1" parent="I3O4Nhu3E_oi3L7Ds6Jt-61">
          <mxGeometry x="283.5" width="30" height="30" as="geometry" />
        </mxCell>
        <mxCell id="I3O4Nhu3E_oi3L7Ds6Jt-47" value="" style="endArrow=none;html=1;rounded=0;entryX=0;entryY=1;entryDx=0;entryDy=0;exitX=0.917;exitY=0.832;exitDx=0;exitDy=0;exitPerimeter=0;" edge="1" parent="I3O4Nhu3E_oi3L7Ds6Jt-61" source="I3O4Nhu3E_oi3L7Ds6Jt-46" target="I3O4Nhu3E_oi3L7Ds6Jt-46">
          <mxGeometry width="50" height="50" relative="1" as="geometry">
            <mxPoint x="344.5" y="161" as="sourcePoint" />
            <mxPoint x="404.5" y="131" as="targetPoint" />
            <Array as="points">
              <mxPoint x="314.5" y="51" />
              <mxPoint x="298.5" y="31" />
              <mxPoint x="284.5" y="51" />
            </Array>
          </mxGeometry>
        </mxCell>
        <mxCell id="I3O4Nhu3E_oi3L7Ds6Jt-63" value="" style="group" vertex="1" connectable="0" parent="1">
          <mxGeometry x="473" y="472" width="313.5" height="361" as="geometry" />
        </mxCell>
        <mxCell id="I3O4Nhu3E_oi3L7Ds6Jt-64" value="" style="rounded=0;whiteSpace=wrap;html=1;" vertex="1" parent="I3O4Nhu3E_oi3L7Ds6Jt-63">
          <mxGeometry y="11" width="300" height="350" as="geometry" />
        </mxCell>
        <mxCell id="I3O4Nhu3E_oi3L7Ds6Jt-65" value="" style="group" vertex="1" connectable="0" parent="I3O4Nhu3E_oi3L7Ds6Jt-63">
          <mxGeometry x="16.319999999999993" y="311" width="267.37" height="32" as="geometry" />
        </mxCell>
        <mxCell id="I3O4Nhu3E_oi3L7Ds6Jt-66" value="Visit Website" style="rounded=1;whiteSpace=wrap;html=1;" vertex="1" parent="I3O4Nhu3E_oi3L7Ds6Jt-65">
          <mxGeometry width="267.37" height="32" as="geometry" />
        </mxCell>
        <mxCell id="I3O4Nhu3E_oi3L7Ds6Jt-67" value="" style="verticalLabelPosition=bottom;shadow=0;dashed=0;align=center;html=1;verticalAlign=top;strokeWidth=1;shape=mxgraph.mockup.graphics.simpleIcon;strokeColor=#999999;aspect=fixed;" vertex="1" parent="I3O4Nhu3E_oi3L7Ds6Jt-65">
          <mxGeometry x="78.18" y="8" width="16" height="16" as="geometry" />
        </mxCell>
        <mxCell id="I3O4Nhu3E_oi3L7Ds6Jt-68" value="" style="group" vertex="1" connectable="0" parent="I3O4Nhu3E_oi3L7Ds6Jt-63">
          <mxGeometry x="14.5" y="241" width="150" height="60" as="geometry" />
        </mxCell>
        <mxCell id="I3O4Nhu3E_oi3L7Ds6Jt-69" value="&lt;font&gt;&lt;b&gt;Phone: &lt;/b&gt;300-43265&lt;/font&gt;" style="text;html=1;align=left;verticalAlign=middle;whiteSpace=wrap;rounded=0;" vertex="1" parent="I3O4Nhu3E_oi3L7Ds6Jt-68">
          <mxGeometry width="110" height="20" as="geometry" />
        </mxCell>
        <mxCell id="I3O4Nhu3E_oi3L7Ds6Jt-70" value="&lt;b&gt;Address: &lt;/b&gt;Street Nº, District" style="text;html=1;align=left;verticalAlign=middle;whiteSpace=wrap;rounded=0;" vertex="1" parent="I3O4Nhu3E_oi3L7Ds6Jt-68">
          <mxGeometry y="20" width="150" height="20" as="geometry" />
        </mxCell>
        <mxCell id="I3O4Nhu3E_oi3L7Ds6Jt-71" value="&lt;b&gt;Department: &lt;/b&gt;Gastronomy" style="text;html=1;align=left;verticalAlign=middle;whiteSpace=wrap;rounded=0;" vertex="1" parent="I3O4Nhu3E_oi3L7Ds6Jt-68">
          <mxGeometry y="40" width="150" height="20" as="geometry" />
        </mxCell>
        <mxCell id="I3O4Nhu3E_oi3L7Ds6Jt-72" value="" style="group" vertex="1" connectable="0" parent="I3O4Nhu3E_oi3L7Ds6Jt-63">
          <mxGeometry x="10.25" y="151" width="279.5" height="80.17999999999995" as="geometry" />
        </mxCell>
        <mxCell id="I3O4Nhu3E_oi3L7Ds6Jt-73" value="&lt;div&gt;Lorem ipsum dolor sit amet consectetur, adipisicing elit. Architecto, suscipit atque nemo, dignissimos consectetur odit sapiente sequi aperiam accusamus sunt quae obcaecati exercitationem fugit blanditiis nesciunt et iste, dolores voluptas.&lt;/div&gt;" style="text;html=1;align=center;verticalAlign=middle;whiteSpace=wrap;rounded=0;" vertex="1" parent="I3O4Nhu3E_oi3L7Ds6Jt-72">
          <mxGeometry width="279.5" height="70" as="geometry" />
        </mxCell>
        <mxCell id="I3O4Nhu3E_oi3L7Ds6Jt-74" value="" style="rounded=0;whiteSpace=wrap;html=1;fillColor=#f5f5f5;strokeColor=#666666;fontColor=#333333;" vertex="1" parent="I3O4Nhu3E_oi3L7Ds6Jt-72">
          <mxGeometry x="4.25" y="80" width="275.25" height="0.18" as="geometry" />
        </mxCell>
        <mxCell id="I3O4Nhu3E_oi3L7Ds6Jt-75" value="" style="group" vertex="1" connectable="0" parent="I3O4Nhu3E_oi3L7Ds6Jt-63">
          <mxGeometry width="313.5" height="139" as="geometry" />
        </mxCell>
        <mxCell id="I3O4Nhu3E_oi3L7Ds6Jt-76" value="" style="verticalLabelPosition=bottom;shadow=0;dashed=0;align=center;html=1;verticalAlign=top;strokeWidth=1;shape=mxgraph.mockup.graphics.simpleIcon;strokeColor=#999999;" vertex="1" parent="I3O4Nhu3E_oi3L7Ds6Jt-75">
          <mxGeometry y="11" width="300" height="128" as="geometry" />
        </mxCell>
        <mxCell id="I3O4Nhu3E_oi3L7Ds6Jt-77" value="&lt;b&gt;&lt;font style=&quot;font-size: 24px;&quot;&gt;Business Name&lt;/font&gt;&lt;/b&gt;" style="text;html=1;align=center;verticalAlign=middle;whiteSpace=wrap;rounded=0;" vertex="1" parent="I3O4Nhu3E_oi3L7Ds6Jt-75">
          <mxGeometry x="40" y="101" width="220" height="30" as="geometry" />
        </mxCell>
        <mxCell id="I3O4Nhu3E_oi3L7Ds6Jt-78" value="&lt;font style=&quot;font-size: 10px;&quot;&gt;Level&lt;/font&gt;" style="ellipse;whiteSpace=wrap;html=1;aspect=fixed;" vertex="1" parent="I3O4Nhu3E_oi3L7Ds6Jt-75">
          <mxGeometry x="283.5" width="30" height="30" as="geometry" />
        </mxCell>
        <mxCell id="I3O4Nhu3E_oi3L7Ds6Jt-79" value="" style="endArrow=none;html=1;rounded=0;entryX=0;entryY=1;entryDx=0;entryDy=0;exitX=0.917;exitY=0.832;exitDx=0;exitDy=0;exitPerimeter=0;" edge="1" parent="I3O4Nhu3E_oi3L7Ds6Jt-75" source="I3O4Nhu3E_oi3L7Ds6Jt-78" target="I3O4Nhu3E_oi3L7Ds6Jt-78">
          <mxGeometry width="50" height="50" relative="1" as="geometry">
            <mxPoint x="344.5" y="161" as="sourcePoint" />
            <mxPoint x="404.5" y="131" as="targetPoint" />
            <Array as="points">
              <mxPoint x="314.5" y="51" />
              <mxPoint x="298.5" y="31" />
              <mxPoint x="284.5" y="51" />
            </Array>
          </mxGeometry>
        </mxCell>
        <mxCell id="I3O4Nhu3E_oi3L7Ds6Jt-80" value="" style="group" vertex="1" connectable="0" parent="1">
          <mxGeometry x="820" y="472" width="313.5" height="361" as="geometry" />
        </mxCell>
        <mxCell id="I3O4Nhu3E_oi3L7Ds6Jt-81" value="" style="rounded=0;whiteSpace=wrap;html=1;" vertex="1" parent="I3O4Nhu3E_oi3L7Ds6Jt-80">
          <mxGeometry y="11" width="300" height="350" as="geometry" />
        </mxCell>
        <mxCell id="I3O4Nhu3E_oi3L7Ds6Jt-82" value="" style="group" vertex="1" connectable="0" parent="I3O4Nhu3E_oi3L7Ds6Jt-80">
          <mxGeometry x="16.319999999999993" y="311" width="267.37" height="32" as="geometry" />
        </mxCell>
        <mxCell id="I3O4Nhu3E_oi3L7Ds6Jt-83" value="Visit Website" style="rounded=1;whiteSpace=wrap;html=1;" vertex="1" parent="I3O4Nhu3E_oi3L7Ds6Jt-82">
          <mxGeometry width="267.37" height="32" as="geometry" />
        </mxCell>
        <mxCell id="I3O4Nhu3E_oi3L7Ds6Jt-84" value="" style="verticalLabelPosition=bottom;shadow=0;dashed=0;align=center;html=1;verticalAlign=top;strokeWidth=1;shape=mxgraph.mockup.graphics.simpleIcon;strokeColor=#999999;aspect=fixed;" vertex="1" parent="I3O4Nhu3E_oi3L7Ds6Jt-82">
          <mxGeometry x="78.18" y="8" width="16" height="16" as="geometry" />
        </mxCell>
        <mxCell id="I3O4Nhu3E_oi3L7Ds6Jt-85" value="" style="group" vertex="1" connectable="0" parent="I3O4Nhu3E_oi3L7Ds6Jt-80">
          <mxGeometry x="14.5" y="241" width="150" height="60" as="geometry" />
        </mxCell>
        <mxCell id="I3O4Nhu3E_oi3L7Ds6Jt-86" value="&lt;font&gt;&lt;b&gt;Phone: &lt;/b&gt;300-43265&lt;/font&gt;" style="text;html=1;align=left;verticalAlign=middle;whiteSpace=wrap;rounded=0;" vertex="1" parent="I3O4Nhu3E_oi3L7Ds6Jt-85">
          <mxGeometry width="110" height="20" as="geometry" />
        </mxCell>
        <mxCell id="I3O4Nhu3E_oi3L7Ds6Jt-87" value="&lt;b&gt;Address: &lt;/b&gt;Street Nº, District" style="text;html=1;align=left;verticalAlign=middle;whiteSpace=wrap;rounded=0;" vertex="1" parent="I3O4Nhu3E_oi3L7Ds6Jt-85">
          <mxGeometry y="20" width="150" height="20" as="geometry" />
        </mxCell>
        <mxCell id="I3O4Nhu3E_oi3L7Ds6Jt-88" value="&lt;b&gt;Department: &lt;/b&gt;Gastronomy" style="text;html=1;align=left;verticalAlign=middle;whiteSpace=wrap;rounded=0;" vertex="1" parent="I3O4Nhu3E_oi3L7Ds6Jt-85">
          <mxGeometry y="40" width="150" height="20" as="geometry" />
        </mxCell>
        <mxCell id="I3O4Nhu3E_oi3L7Ds6Jt-89" value="" style="group" vertex="1" connectable="0" parent="I3O4Nhu3E_oi3L7Ds6Jt-80">
          <mxGeometry x="10.25" y="151" width="279.5" height="80.17999999999995" as="geometry" />
        </mxCell>
        <mxCell id="I3O4Nhu3E_oi3L7Ds6Jt-90" value="&lt;div&gt;Lorem ipsum dolor sit amet consectetur, adipisicing elit. Architecto, suscipit atque nemo, dignissimos consectetur odit sapiente sequi aperiam accusamus sunt quae obcaecati exercitationem fugit blanditiis nesciunt et iste, dolores voluptas.&lt;/div&gt;" style="text;html=1;align=center;verticalAlign=middle;whiteSpace=wrap;rounded=0;" vertex="1" parent="I3O4Nhu3E_oi3L7Ds6Jt-89">
          <mxGeometry width="279.5" height="70" as="geometry" />
        </mxCell>
        <mxCell id="I3O4Nhu3E_oi3L7Ds6Jt-91" value="" style="rounded=0;whiteSpace=wrap;html=1;fillColor=#f5f5f5;strokeColor=#666666;fontColor=#333333;" vertex="1" parent="I3O4Nhu3E_oi3L7Ds6Jt-89">
          <mxGeometry x="4.25" y="80" width="275.25" height="0.18" as="geometry" />
        </mxCell>
        <mxCell id="I3O4Nhu3E_oi3L7Ds6Jt-92" value="" style="group" vertex="1" connectable="0" parent="I3O4Nhu3E_oi3L7Ds6Jt-80">
          <mxGeometry width="313.5" height="139" as="geometry" />
        </mxCell>
        <mxCell id="I3O4Nhu3E_oi3L7Ds6Jt-93" value="" style="verticalLabelPosition=bottom;shadow=0;dashed=0;align=center;html=1;verticalAlign=top;strokeWidth=1;shape=mxgraph.mockup.graphics.simpleIcon;strokeColor=#999999;" vertex="1" parent="I3O4Nhu3E_oi3L7Ds6Jt-92">
          <mxGeometry y="11" width="300" height="128" as="geometry" />
        </mxCell>
        <mxCell id="I3O4Nhu3E_oi3L7Ds6Jt-94" value="&lt;b&gt;&lt;font style=&quot;font-size: 24px;&quot;&gt;Business Name&lt;/font&gt;&lt;/b&gt;" style="text;html=1;align=center;verticalAlign=middle;whiteSpace=wrap;rounded=0;" vertex="1" parent="I3O4Nhu3E_oi3L7Ds6Jt-92">
          <mxGeometry x="40" y="101" width="220" height="30" as="geometry" />
        </mxCell>
        <mxCell id="I3O4Nhu3E_oi3L7Ds6Jt-95" value="&lt;font style=&quot;font-size: 10px;&quot;&gt;Level&lt;/font&gt;" style="ellipse;whiteSpace=wrap;html=1;aspect=fixed;" vertex="1" parent="I3O4Nhu3E_oi3L7Ds6Jt-92">
          <mxGeometry x="283.5" width="30" height="30" as="geometry" />
        </mxCell>
        <mxCell id="I3O4Nhu3E_oi3L7Ds6Jt-96" value="" style="endArrow=none;html=1;rounded=0;entryX=0;entryY=1;entryDx=0;entryDy=0;exitX=0.917;exitY=0.832;exitDx=0;exitDy=0;exitPerimeter=0;" edge="1" parent="I3O4Nhu3E_oi3L7Ds6Jt-92" source="I3O4Nhu3E_oi3L7Ds6Jt-95" target="I3O4Nhu3E_oi3L7Ds6Jt-95">
          <mxGeometry width="50" height="50" relative="1" as="geometry">
            <mxPoint x="344.5" y="161" as="sourcePoint" />
            <mxPoint x="404.5" y="131" as="targetPoint" />
            <Array as="points">
              <mxPoint x="314.5" y="51" />
              <mxPoint x="298.5" y="31" />
              <mxPoint x="284.5" y="51" />
            </Array>
          </mxGeometry>
        </mxCell>
        <mxCell id="I3O4Nhu3E_oi3L7Ds6Jt-97" value="" style="group" vertex="1" connectable="0" parent="1">
          <mxGeometry x="1167" y="472" width="313.5" height="361" as="geometry" />
        </mxCell>
        <mxCell id="I3O4Nhu3E_oi3L7Ds6Jt-98" value="" style="rounded=0;whiteSpace=wrap;html=1;" vertex="1" parent="I3O4Nhu3E_oi3L7Ds6Jt-97">
          <mxGeometry y="11" width="300" height="350" as="geometry" />
        </mxCell>
        <mxCell id="I3O4Nhu3E_oi3L7Ds6Jt-99" value="" style="group" vertex="1" connectable="0" parent="I3O4Nhu3E_oi3L7Ds6Jt-97">
          <mxGeometry x="16.319999999999993" y="311" width="267.37" height="32" as="geometry" />
        </mxCell>
        <mxCell id="I3O4Nhu3E_oi3L7Ds6Jt-100" value="Visit Website" style="rounded=1;whiteSpace=wrap;html=1;" vertex="1" parent="I3O4Nhu3E_oi3L7Ds6Jt-99">
          <mxGeometry width="267.37" height="32" as="geometry" />
        </mxCell>
        <mxCell id="I3O4Nhu3E_oi3L7Ds6Jt-101" value="" style="verticalLabelPosition=bottom;shadow=0;dashed=0;align=center;html=1;verticalAlign=top;strokeWidth=1;shape=mxgraph.mockup.graphics.simpleIcon;strokeColor=#999999;aspect=fixed;" vertex="1" parent="I3O4Nhu3E_oi3L7Ds6Jt-99">
          <mxGeometry x="78.18" y="8" width="16" height="16" as="geometry" />
        </mxCell>
        <mxCell id="I3O4Nhu3E_oi3L7Ds6Jt-102" value="" style="group" vertex="1" connectable="0" parent="I3O4Nhu3E_oi3L7Ds6Jt-97">
          <mxGeometry x="14.5" y="241" width="150" height="60" as="geometry" />
        </mxCell>
        <mxCell id="I3O4Nhu3E_oi3L7Ds6Jt-103" value="&lt;font&gt;&lt;b&gt;Phone: &lt;/b&gt;300-43265&lt;/font&gt;" style="text;html=1;align=left;verticalAlign=middle;whiteSpace=wrap;rounded=0;" vertex="1" parent="I3O4Nhu3E_oi3L7Ds6Jt-102">
          <mxGeometry width="110" height="20" as="geometry" />
        </mxCell>
        <mxCell id="I3O4Nhu3E_oi3L7Ds6Jt-104" value="&lt;b&gt;Address: &lt;/b&gt;Street Nº, District" style="text;html=1;align=left;verticalAlign=middle;whiteSpace=wrap;rounded=0;" vertex="1" parent="I3O4Nhu3E_oi3L7Ds6Jt-102">
          <mxGeometry y="20" width="150" height="20" as="geometry" />
        </mxCell>
        <mxCell id="I3O4Nhu3E_oi3L7Ds6Jt-105" value="&lt;b&gt;Department: &lt;/b&gt;Gastronomy" style="text;html=1;align=left;verticalAlign=middle;whiteSpace=wrap;rounded=0;" vertex="1" parent="I3O4Nhu3E_oi3L7Ds6Jt-102">
          <mxGeometry y="40" width="150" height="20" as="geometry" />
        </mxCell>
        <mxCell id="I3O4Nhu3E_oi3L7Ds6Jt-106" value="" style="group" vertex="1" connectable="0" parent="I3O4Nhu3E_oi3L7Ds6Jt-97">
          <mxGeometry x="10.25" y="151" width="279.5" height="80.17999999999995" as="geometry" />
        </mxCell>
        <mxCell id="I3O4Nhu3E_oi3L7Ds6Jt-107" value="&lt;div&gt;Lorem ipsum dolor sit amet consectetur, adipisicing elit. Architecto, suscipit atque nemo, dignissimos consectetur odit sapiente sequi aperiam accusamus sunt quae obcaecati exercitationem fugit blanditiis nesciunt et iste, dolores voluptas.&lt;/div&gt;" style="text;html=1;align=center;verticalAlign=middle;whiteSpace=wrap;rounded=0;" vertex="1" parent="I3O4Nhu3E_oi3L7Ds6Jt-106">
          <mxGeometry width="279.5" height="70" as="geometry" />
        </mxCell>
        <mxCell id="I3O4Nhu3E_oi3L7Ds6Jt-108" value="" style="rounded=0;whiteSpace=wrap;html=1;fillColor=#f5f5f5;strokeColor=#666666;fontColor=#333333;" vertex="1" parent="I3O4Nhu3E_oi3L7Ds6Jt-106">
          <mxGeometry x="4.25" y="80" width="275.25" height="0.18" as="geometry" />
        </mxCell>
        <mxCell id="I3O4Nhu3E_oi3L7Ds6Jt-109" value="" style="group" vertex="1" connectable="0" parent="I3O4Nhu3E_oi3L7Ds6Jt-97">
          <mxGeometry width="313.5" height="139" as="geometry" />
        </mxCell>
        <mxCell id="I3O4Nhu3E_oi3L7Ds6Jt-110" value="" style="verticalLabelPosition=bottom;shadow=0;dashed=0;align=center;html=1;verticalAlign=top;strokeWidth=1;shape=mxgraph.mockup.graphics.simpleIcon;strokeColor=#999999;" vertex="1" parent="I3O4Nhu3E_oi3L7Ds6Jt-109">
          <mxGeometry y="11" width="300" height="128" as="geometry" />
        </mxCell>
        <mxCell id="I3O4Nhu3E_oi3L7Ds6Jt-111" value="&lt;b&gt;&lt;font style=&quot;font-size: 24px;&quot;&gt;Business Name&lt;/font&gt;&lt;/b&gt;" style="text;html=1;align=center;verticalAlign=middle;whiteSpace=wrap;rounded=0;" vertex="1" parent="I3O4Nhu3E_oi3L7Ds6Jt-109">
          <mxGeometry x="40" y="101" width="220" height="30" as="geometry" />
        </mxCell>
        <mxCell id="I3O4Nhu3E_oi3L7Ds6Jt-112" value="&lt;font style=&quot;font-size: 10px;&quot;&gt;Level&lt;/font&gt;" style="ellipse;whiteSpace=wrap;html=1;aspect=fixed;" vertex="1" parent="I3O4Nhu3E_oi3L7Ds6Jt-109">
          <mxGeometry x="283.5" width="30" height="30" as="geometry" />
        </mxCell>
        <mxCell id="I3O4Nhu3E_oi3L7Ds6Jt-113" value="" style="endArrow=none;html=1;rounded=0;entryX=0;entryY=1;entryDx=0;entryDy=0;exitX=0.917;exitY=0.832;exitDx=0;exitDy=0;exitPerimeter=0;" edge="1" parent="I3O4Nhu3E_oi3L7Ds6Jt-109" source="I3O4Nhu3E_oi3L7Ds6Jt-112" target="I3O4Nhu3E_oi3L7Ds6Jt-112">
          <mxGeometry width="50" height="50" relative="1" as="geometry">
            <mxPoint x="344.5" y="161" as="sourcePoint" />
            <mxPoint x="404.5" y="131" as="targetPoint" />
            <Array as="points">
              <mxPoint x="314.5" y="51" />
              <mxPoint x="298.5" y="31" />
              <mxPoint x="284.5" y="51" />
            </Array>
          </mxGeometry>
        </mxCell>
        <mxCell id="I3O4Nhu3E_oi3L7Ds6Jt-114" value="" style="group" vertex="1" connectable="0" parent="1">
          <mxGeometry x="1514" y="472" width="313.5" height="361" as="geometry" />
        </mxCell>
        <mxCell id="I3O4Nhu3E_oi3L7Ds6Jt-115" value="" style="rounded=0;whiteSpace=wrap;html=1;" vertex="1" parent="I3O4Nhu3E_oi3L7Ds6Jt-114">
          <mxGeometry y="11" width="300" height="350" as="geometry" />
        </mxCell>
        <mxCell id="I3O4Nhu3E_oi3L7Ds6Jt-116" value="" style="group" vertex="1" connectable="0" parent="I3O4Nhu3E_oi3L7Ds6Jt-114">
          <mxGeometry x="16.319999999999993" y="311" width="267.37" height="32" as="geometry" />
        </mxCell>
        <mxCell id="I3O4Nhu3E_oi3L7Ds6Jt-117" value="Visit Website" style="rounded=1;whiteSpace=wrap;html=1;" vertex="1" parent="I3O4Nhu3E_oi3L7Ds6Jt-116">
          <mxGeometry width="267.37" height="32" as="geometry" />
        </mxCell>
        <mxCell id="I3O4Nhu3E_oi3L7Ds6Jt-118" value="" style="verticalLabelPosition=bottom;shadow=0;dashed=0;align=center;html=1;verticalAlign=top;strokeWidth=1;shape=mxgraph.mockup.graphics.simpleIcon;strokeColor=#999999;aspect=fixed;" vertex="1" parent="I3O4Nhu3E_oi3L7Ds6Jt-116">
          <mxGeometry x="78.18" y="8" width="16" height="16" as="geometry" />
        </mxCell>
        <mxCell id="I3O4Nhu3E_oi3L7Ds6Jt-119" value="" style="group" vertex="1" connectable="0" parent="I3O4Nhu3E_oi3L7Ds6Jt-114">
          <mxGeometry x="14.5" y="241" width="150" height="60" as="geometry" />
        </mxCell>
        <mxCell id="I3O4Nhu3E_oi3L7Ds6Jt-120" value="&lt;font&gt;&lt;b&gt;Phone: &lt;/b&gt;300-43265&lt;/font&gt;" style="text;html=1;align=left;verticalAlign=middle;whiteSpace=wrap;rounded=0;" vertex="1" parent="I3O4Nhu3E_oi3L7Ds6Jt-119">
          <mxGeometry width="110" height="20" as="geometry" />
        </mxCell>
        <mxCell id="I3O4Nhu3E_oi3L7Ds6Jt-121" value="&lt;b&gt;Address: &lt;/b&gt;Street Nº, District" style="text;html=1;align=left;verticalAlign=middle;whiteSpace=wrap;rounded=0;" vertex="1" parent="I3O4Nhu3E_oi3L7Ds6Jt-119">
          <mxGeometry y="20" width="150" height="20" as="geometry" />
        </mxCell>
        <mxCell id="I3O4Nhu3E_oi3L7Ds6Jt-122" value="&lt;b&gt;Department: &lt;/b&gt;Gastronomy" style="text;html=1;align=left;verticalAlign=middle;whiteSpace=wrap;rounded=0;" vertex="1" parent="I3O4Nhu3E_oi3L7Ds6Jt-119">
          <mxGeometry y="40" width="150" height="20" as="geometry" />
        </mxCell>
        <mxCell id="I3O4Nhu3E_oi3L7Ds6Jt-123" value="" style="group" vertex="1" connectable="0" parent="I3O4Nhu3E_oi3L7Ds6Jt-114">
          <mxGeometry x="10.25" y="151" width="279.5" height="80.17999999999995" as="geometry" />
        </mxCell>
        <mxCell id="I3O4Nhu3E_oi3L7Ds6Jt-124" value="&lt;div&gt;Lorem ipsum dolor sit amet consectetur, adipisicing elit. Architecto, suscipit atque nemo, dignissimos consectetur odit sapiente sequi aperiam accusamus sunt quae obcaecati exercitationem fugit blanditiis nesciunt et iste, dolores voluptas.&lt;/div&gt;" style="text;html=1;align=center;verticalAlign=middle;whiteSpace=wrap;rounded=0;" vertex="1" parent="I3O4Nhu3E_oi3L7Ds6Jt-123">
          <mxGeometry width="279.5" height="70" as="geometry" />
        </mxCell>
        <mxCell id="I3O4Nhu3E_oi3L7Ds6Jt-125" value="" style="rounded=0;whiteSpace=wrap;html=1;fillColor=#f5f5f5;strokeColor=#666666;fontColor=#333333;" vertex="1" parent="I3O4Nhu3E_oi3L7Ds6Jt-123">
          <mxGeometry x="4.25" y="80" width="275.25" height="0.18" as="geometry" />
        </mxCell>
        <mxCell id="I3O4Nhu3E_oi3L7Ds6Jt-126" value="" style="group" vertex="1" connectable="0" parent="I3O4Nhu3E_oi3L7Ds6Jt-114">
          <mxGeometry width="313.5" height="139" as="geometry" />
        </mxCell>
        <mxCell id="I3O4Nhu3E_oi3L7Ds6Jt-127" value="" style="verticalLabelPosition=bottom;shadow=0;dashed=0;align=center;html=1;verticalAlign=top;strokeWidth=1;shape=mxgraph.mockup.graphics.simpleIcon;strokeColor=#999999;" vertex="1" parent="I3O4Nhu3E_oi3L7Ds6Jt-126">
          <mxGeometry y="11" width="300" height="128" as="geometry" />
        </mxCell>
        <mxCell id="I3O4Nhu3E_oi3L7Ds6Jt-128" value="&lt;b&gt;&lt;font style=&quot;font-size: 24px;&quot;&gt;Business Name&lt;/font&gt;&lt;/b&gt;" style="text;html=1;align=center;verticalAlign=middle;whiteSpace=wrap;rounded=0;" vertex="1" parent="I3O4Nhu3E_oi3L7Ds6Jt-126">
          <mxGeometry x="40" y="101" width="220" height="30" as="geometry" />
        </mxCell>
        <mxCell id="I3O4Nhu3E_oi3L7Ds6Jt-129" value="&lt;font style=&quot;font-size: 10px;&quot;&gt;Level&lt;/font&gt;" style="ellipse;whiteSpace=wrap;html=1;aspect=fixed;" vertex="1" parent="I3O4Nhu3E_oi3L7Ds6Jt-126">
          <mxGeometry x="283.5" width="30" height="30" as="geometry" />
        </mxCell>
        <mxCell id="I3O4Nhu3E_oi3L7Ds6Jt-130" value="" style="endArrow=none;html=1;rounded=0;entryX=0;entryY=1;entryDx=0;entryDy=0;exitX=0.917;exitY=0.832;exitDx=0;exitDy=0;exitPerimeter=0;" edge="1" parent="I3O4Nhu3E_oi3L7Ds6Jt-126" source="I3O4Nhu3E_oi3L7Ds6Jt-129" target="I3O4Nhu3E_oi3L7Ds6Jt-129">
          <mxGeometry width="50" height="50" relative="1" as="geometry">
            <mxPoint x="344.5" y="161" as="sourcePoint" />
            <mxPoint x="404.5" y="131" as="targetPoint" />
            <Array as="points">
              <mxPoint x="314.5" y="51" />
              <mxPoint x="298.5" y="31" />
              <mxPoint x="284.5" y="51" />
            </Array>
          </mxGeometry>
        </mxCell>
        <mxCell id="I3O4Nhu3E_oi3L7Ds6Jt-145" value="" style="group" vertex="1" connectable="0" parent="1">
          <mxGeometry x="125.5" y="971" width="1774.5" height="145" as="geometry" />
        </mxCell>
        <mxCell id="I3O4Nhu3E_oi3L7Ds6Jt-40" value="C³ | Curitiba Chamber Of Commerce" style="text;html=1;align=left;verticalAlign=middle;whiteSpace=wrap;rounded=0;fontStyle=1;fontSize=24;" vertex="1" parent="I3O4Nhu3E_oi3L7Ds6Jt-145">
          <mxGeometry width="414.5" height="30" as="geometry" />
        </mxCell>
        <mxCell id="I3O4Nhu3E_oi3L7Ds6Jt-41" value="&lt;span style=&quot;font-weight: normal;&quot;&gt;&lt;font style=&quot;font-size: 16px;&quot;&gt;Água Verde, Curitiba - PR, Brazil&lt;/font&gt;&lt;/span&gt;" style="text;html=1;align=left;verticalAlign=middle;whiteSpace=wrap;rounded=0;fontStyle=1;fontSize=24;" vertex="1" parent="I3O4Nhu3E_oi3L7Ds6Jt-145">
          <mxGeometry y="30" width="244.5" height="30" as="geometry" />
        </mxCell>
        <mxCell id="I3O4Nhu3E_oi3L7Ds6Jt-133" value="&lt;span style=&quot;font-weight: normal;&quot;&gt;&lt;font style=&quot;font-size: 16px;&quot;&gt;contact@cwbchamberofcommerce.com&lt;/font&gt;&lt;/span&gt;" style="text;html=1;align=left;verticalAlign=middle;whiteSpace=wrap;rounded=0;fontStyle=1;fontSize=24;" vertex="1" parent="I3O4Nhu3E_oi3L7Ds6Jt-145">
          <mxGeometry y="61" width="290" height="30" as="geometry" />
        </mxCell>
        <mxCell id="I3O4Nhu3E_oi3L7Ds6Jt-135" value="&lt;span style=&quot;font-weight: normal;&quot;&gt;&lt;font style=&quot;font-size: 16px;&quot;&gt;55 41 91824-4324&lt;/font&gt;&lt;/span&gt;" style="text;html=1;align=left;verticalAlign=middle;whiteSpace=wrap;rounded=0;fontStyle=1;fontSize=24;" vertex="1" parent="I3O4Nhu3E_oi3L7Ds6Jt-145">
          <mxGeometry y="91" width="140" height="30" as="geometry" />
        </mxCell>
        <mxCell id="I3O4Nhu3E_oi3L7Ds6Jt-146" value="" style="group" vertex="1" connectable="0" parent="1">
          <mxGeometry x="1493.5" y="969" width="326" height="121" as="geometry" />
        </mxCell>
        <mxCell id="I3O4Nhu3E_oi3L7Ds6Jt-140" value="&lt;span style=&quot;font-weight: normal;&quot;&gt;&lt;font style=&quot;font-size: 16px;&quot;&gt;WDD231 Class Project&lt;/font&gt;&lt;/span&gt;" style="text;html=1;align=right;verticalAlign=middle;whiteSpace=wrap;rounded=0;fontStyle=1;fontSize=24;flipV=1;" vertex="1" parent="I3O4Nhu3E_oi3L7Ds6Jt-146">
          <mxGeometry x="160.5" width="165.5" height="30" as="geometry" />
        </mxCell>
        <mxCell id="I3O4Nhu3E_oi3L7Ds6Jt-142" value="&lt;span style=&quot;font-weight: normal;&quot;&gt;&lt;font style=&quot;font-size: 16px;&quot;&gt;Yuri Ziemba Nunes&lt;/font&gt;&lt;/span&gt;" style="text;html=1;align=right;verticalAlign=middle;whiteSpace=wrap;rounded=0;fontStyle=1;fontSize=24;flipV=1;" vertex="1" parent="I3O4Nhu3E_oi3L7Ds6Jt-146">
          <mxGeometry x="160.5" y="31" width="165.5" height="30" as="geometry" />
        </mxCell>
        <mxCell id="I3O4Nhu3E_oi3L7Ds6Jt-143" value="&lt;span style=&quot;font-size: 16px; font-weight: 400;&quot;&gt;© 20xx Curitiba Chamber Of Commerce&lt;/span&gt;" style="text;html=1;align=right;verticalAlign=middle;whiteSpace=wrap;rounded=0;fontStyle=1;fontSize=24;flipV=1;" vertex="1" parent="I3O4Nhu3E_oi3L7Ds6Jt-146">
          <mxGeometry x="40" y="64" width="286" height="30" as="geometry" />
        </mxCell>
        <mxCell id="I3O4Nhu3E_oi3L7Ds6Jt-144" value="&lt;span style=&quot;font-size: 16px; font-weight: 400;&quot;&gt;Last Modification at mm/dd/yyyy HH:mm:ss&lt;/span&gt;" style="text;html=1;align=right;verticalAlign=middle;whiteSpace=wrap;rounded=0;fontStyle=1;fontSize=24;flipV=1;" vertex="1" parent="I3O4Nhu3E_oi3L7Ds6Jt-146">
          <mxGeometry y="91" width="326" height="30" as="geometry" />
        </mxCell>
        <mxCell id="I3O4Nhu3E_oi3L7Ds6Jt-147" value="" style="group" vertex="1" connectable="0" parent="1">
          <mxGeometry x="837" y="1009" width="266" height="56" as="geometry" />
        </mxCell>
        <mxCell id="I3O4Nhu3E_oi3L7Ds6Jt-136" value="" style="verticalLabelPosition=bottom;shadow=0;dashed=0;align=center;html=1;verticalAlign=top;strokeWidth=1;shape=mxgraph.mockup.graphics.simpleIcon;strokeColor=#999999;aspect=fixed;" vertex="1" parent="I3O4Nhu3E_oi3L7Ds6Jt-147">
          <mxGeometry width="56" height="56" as="geometry" />
        </mxCell>
        <mxCell id="I3O4Nhu3E_oi3L7Ds6Jt-137" value="" style="verticalLabelPosition=bottom;shadow=0;dashed=0;align=center;html=1;verticalAlign=top;strokeWidth=1;shape=mxgraph.mockup.graphics.simpleIcon;strokeColor=#999999;aspect=fixed;" vertex="1" parent="I3O4Nhu3E_oi3L7Ds6Jt-147">
          <mxGeometry x="105" width="56" height="56" as="geometry" />
        </mxCell>
        <mxCell id="I3O4Nhu3E_oi3L7Ds6Jt-138" value="" style="verticalLabelPosition=bottom;shadow=0;dashed=0;align=center;html=1;verticalAlign=top;strokeWidth=1;shape=mxgraph.mockup.graphics.simpleIcon;strokeColor=#999999;aspect=fixed;" vertex="1" parent="I3O4Nhu3E_oi3L7Ds6Jt-147">
          <mxGeometry x="210" width="56" height="56" as="geometry" />
        </mxCell>
        <mxCell id="I3O4Nhu3E_oi3L7Ds6Jt-148" value="" style="verticalLabelPosition=bottom;verticalAlign=top;html=1;shape=mxgraph.basic.rect;fillColor2=none;strokeWidth=1;size=20;indent=5;strokeColor=#666666;fillColor=#f5f5f5;fontColor=#333333;movable=1;resizable=1;rotatable=1;deletable=1;editable=1;locked=0;connectable=1;shadow=1;" vertex="1" parent="1">
          <mxGeometry x="53" y="1290" width="526" height="80" as="geometry" />
        </mxCell>
        <mxCell id="I3O4Nhu3E_oi3L7Ds6Jt-149" value="" style="verticalLabelPosition=bottom;shadow=0;dashed=0;align=center;html=1;verticalAlign=top;strokeWidth=1;shape=mxgraph.mockup.graphics.simpleIcon;strokeColor=#999999;aspect=fixed;" vertex="1" parent="1">
          <mxGeometry x="61.5" y="1298" width="64" height="64" as="geometry" />
        </mxCell>
        <mxCell id="I3O4Nhu3E_oi3L7Ds6Jt-150" value="" style="group;align=left;" vertex="1" connectable="0" parent="1">
          <mxGeometry x="135" y="1298" width="190" height="46" as="geometry" />
        </mxCell>
        <mxCell id="I3O4Nhu3E_oi3L7Ds6Jt-151" value="&lt;font style=&quot;font-size: 16px;&quot;&gt;Chamber Of Commerce&lt;/font&gt;" style="text;html=1;align=left;verticalAlign=middle;whiteSpace=wrap;rounded=0;" vertex="1" parent="I3O4Nhu3E_oi3L7Ds6Jt-150">
          <mxGeometry y="31.625" width="190" height="14.375" as="geometry" />
        </mxCell>
        <mxCell id="I3O4Nhu3E_oi3L7Ds6Jt-152" value="&lt;font style=&quot;font-size: 24px;&quot;&gt;[C³] Curitiba&lt;/font&gt;" style="text;html=1;align=left;verticalAlign=middle;whiteSpace=wrap;rounded=0;" vertex="1" parent="I3O4Nhu3E_oi3L7Ds6Jt-150">
          <mxGeometry width="190" height="30.66666666666666" as="geometry" />
        </mxCell>
        <mxCell id="I3O4Nhu3E_oi3L7Ds6Jt-160" value="" style="group" vertex="1" connectable="0" parent="1">
          <mxGeometry x="522" y="1298" width="48" height="29" as="geometry" />
        </mxCell>
        <mxCell id="I3O4Nhu3E_oi3L7Ds6Jt-153" value="" style="rounded=0;whiteSpace=wrap;html=1;strokeColor=none;fillColor=#4D4D4D;fontColor=#333333;" vertex="1" parent="I3O4Nhu3E_oi3L7Ds6Jt-160">
          <mxGeometry width="48" height="4" as="geometry" />
        </mxCell>
        <mxCell id="I3O4Nhu3E_oi3L7Ds6Jt-154" value="" style="rounded=0;whiteSpace=wrap;html=1;strokeColor=none;fillColor=#4D4D4D;fontColor=#333333;" vertex="1" parent="I3O4Nhu3E_oi3L7Ds6Jt-160">
          <mxGeometry y="13" width="48" height="4" as="geometry" />
        </mxCell>
        <mxCell id="I3O4Nhu3E_oi3L7Ds6Jt-155" value="" style="rounded=0;whiteSpace=wrap;html=1;strokeColor=none;fillColor=#4D4D4D;fontColor=#333333;" vertex="1" parent="I3O4Nhu3E_oi3L7Ds6Jt-160">
          <mxGeometry y="25" width="48" height="4" as="geometry" />
        </mxCell>
        <mxCell id="I3O4Nhu3E_oi3L7Ds6Jt-173" value="" style="group;fillColor=#f5f5f5;strokeColor=#666666;fontColor=#333333;" vertex="1" connectable="0" parent="1">
          <mxGeometry x="53" y="1370" width="526" height="160" as="geometry" />
        </mxCell>
        <mxCell id="I3O4Nhu3E_oi3L7Ds6Jt-171" value="" style="rounded=0;whiteSpace=wrap;html=1;fillColor=#ffe6cc;strokeColor=#d79b00;" vertex="1" parent="I3O4Nhu3E_oi3L7Ds6Jt-173">
          <mxGeometry width="525.0075471698113" height="160" as="geometry" />
        </mxCell>
        <mxCell id="I3O4Nhu3E_oi3L7Ds6Jt-172" value="" style="group" vertex="1" connectable="0" parent="I3O4Nhu3E_oi3L7Ds6Jt-173">
          <mxGeometry x="7.939622641509434" y="10" width="109.16981132075473" height="140" as="geometry" />
        </mxCell>
        <mxCell id="I3O4Nhu3E_oi3L7Ds6Jt-167" value="&lt;font style=&quot;font-size: 24px;&quot;&gt;Home&lt;/font&gt;" style="text;html=1;align=left;verticalAlign=middle;whiteSpace=wrap;rounded=0;spacing=2;" vertex="1" parent="I3O4Nhu3E_oi3L7Ds6Jt-172">
          <mxGeometry width="69.47169811320754" height="30" as="geometry" />
        </mxCell>
        <mxCell id="I3O4Nhu3E_oi3L7Ds6Jt-168" value="&lt;font style=&quot;font-size: 24px;&quot;&gt;Directory&lt;/font&gt;" style="text;html=1;align=left;verticalAlign=middle;whiteSpace=wrap;rounded=0;fontStyle=1;fontColor=#4D4D4D;spacing=2;" vertex="1" parent="I3O4Nhu3E_oi3L7Ds6Jt-172">
          <mxGeometry y="37" width="109.16981132075473" height="30" as="geometry" />
        </mxCell>
        <mxCell id="I3O4Nhu3E_oi3L7Ds6Jt-169" value="&lt;font style=&quot;font-size: 24px;&quot;&gt;Join&lt;/font&gt;" style="text;html=1;align=left;verticalAlign=middle;whiteSpace=wrap;rounded=0;spacing=2;" vertex="1" parent="I3O4Nhu3E_oi3L7Ds6Jt-172">
          <mxGeometry y="73" width="39.69811320754718" height="30" as="geometry" />
        </mxCell>
        <mxCell id="I3O4Nhu3E_oi3L7Ds6Jt-170" value="&lt;font style=&quot;font-size: 24px;&quot;&gt;Discover&lt;/font&gt;" style="text;html=1;align=left;verticalAlign=middle;whiteSpace=wrap;rounded=0;spacing=2;" vertex="1" parent="I3O4Nhu3E_oi3L7Ds6Jt-172">
          <mxGeometry y="110" width="99.24528301886792" height="30" as="geometry" />
        </mxCell>
        <mxCell id="I3O4Nhu3E_oi3L7Ds6Jt-174" value="" style="rounded=0;whiteSpace=wrap;html=1;fillColor=#f5f5f5;strokeColor=#666666;fontColor=#333333;" vertex="1" parent="1">
          <mxGeometry x="58" y="1630" width="512" height="1" as="geometry" />
        </mxCell>
        <mxCell id="I3O4Nhu3E_oi3L7Ds6Jt-178" value="" style="group" vertex="1" connectable="0" parent="1">
          <mxGeometry x="122" y="1570" width="415" height="52" as="geometry" />
        </mxCell>
        <mxCell id="I3O4Nhu3E_oi3L7Ds6Jt-176" value="&lt;font style=&quot;font-size: 40px;&quot;&gt;Business Directory&lt;/font&gt;" style="text;html=1;align=left;verticalAlign=middle;whiteSpace=wrap;rounded=0;fontStyle=1" vertex="1" parent="I3O4Nhu3E_oi3L7Ds6Jt-178">
          <mxGeometry x="39" width="376" height="52" as="geometry" />
        </mxCell>
        <mxCell id="I3O4Nhu3E_oi3L7Ds6Jt-177" value="" style="verticalLabelPosition=bottom;shadow=0;dashed=0;align=center;html=1;verticalAlign=top;strokeWidth=1;shape=mxgraph.mockup.graphics.simpleIcon;strokeColor=#999999;aspect=fixed;" vertex="1" parent="I3O4Nhu3E_oi3L7Ds6Jt-178">
          <mxGeometry y="10" width="32" height="32" as="geometry" />
        </mxCell>
        <mxCell id="I3O4Nhu3E_oi3L7Ds6Jt-179" value="&lt;h1 style=&quot;margin-top: 0px;&quot;&gt;&lt;font&gt;Meet Our Members&lt;/font&gt;&lt;/h1&gt;&lt;div&gt;&lt;font style=&quot;font-size: 16px;&quot;&gt;Check out the members of C³ Curitiba Chamber of Commerce and grow with us.&lt;/font&gt;&lt;/div&gt;" style="text;html=1;whiteSpace=wrap;overflow=hidden;rounded=0;" vertex="1" parent="1">
          <mxGeometry x="60" y="1644" width="450" height="96" as="geometry" />
        </mxCell>
        <mxCell id="I3O4Nhu3E_oi3L7Ds6Jt-200" value="" style="group" vertex="1" connectable="0" parent="1">
          <mxGeometry x="1688" y="420" width="128" height="32" as="geometry" />
        </mxCell>
        <mxCell id="I3O4Nhu3E_oi3L7Ds6Jt-198" value="List View" style="rounded=0;whiteSpace=wrap;html=1;" vertex="1" parent="I3O4Nhu3E_oi3L7Ds6Jt-200">
          <mxGeometry width="64" height="32" as="geometry" />
        </mxCell>
        <mxCell id="I3O4Nhu3E_oi3L7Ds6Jt-199" value="Grid View" style="rounded=0;whiteSpace=wrap;html=1;fillColor=#f5f5f5;fontColor=#333333;strokeColor=#666666;" vertex="1" parent="I3O4Nhu3E_oi3L7Ds6Jt-200">
          <mxGeometry x="64" width="64" height="32" as="geometry" />
        </mxCell>
        <mxCell id="I3O4Nhu3E_oi3L7Ds6Jt-207" value="" style="group" vertex="1" connectable="0" parent="1">
          <mxGeometry x="64" y="1750" width="128" height="32" as="geometry" />
        </mxCell>
        <mxCell id="I3O4Nhu3E_oi3L7Ds6Jt-208" value="List View" style="rounded=0;whiteSpace=wrap;html=1;fillColor=#f5f5f5;fontColor=#333333;strokeColor=#666666;" vertex="1" parent="I3O4Nhu3E_oi3L7Ds6Jt-207">
          <mxGeometry width="64" height="32" as="geometry" />
        </mxCell>
        <mxCell id="I3O4Nhu3E_oi3L7Ds6Jt-209" value="Grid View" style="rounded=0;whiteSpace=wrap;html=1;" vertex="1" parent="I3O4Nhu3E_oi3L7Ds6Jt-207">
          <mxGeometry x="64" width="64" height="32" as="geometry" />
        </mxCell>
        <mxCell id="I3O4Nhu3E_oi3L7Ds6Jt-236" value="" style="group" vertex="1" connectable="0" parent="1">
          <mxGeometry x="150" y="1810" width="316" height="370" as="geometry" />
        </mxCell>
        <mxCell id="I3O4Nhu3E_oi3L7Ds6Jt-213" value="" style="group" vertex="1" connectable="0" parent="I3O4Nhu3E_oi3L7Ds6Jt-236">
          <mxGeometry width="316" height="110" as="geometry" />
        </mxCell>
        <mxCell id="I3O4Nhu3E_oi3L7Ds6Jt-181" value="" style="rounded=1;whiteSpace=wrap;html=1;" vertex="1" parent="I3O4Nhu3E_oi3L7Ds6Jt-213">
          <mxGeometry y="11" width="300" height="99" as="geometry" />
        </mxCell>
        <mxCell id="I3O4Nhu3E_oi3L7Ds6Jt-182" value="" style="group" vertex="1" connectable="0" parent="I3O4Nhu3E_oi3L7Ds6Jt-213">
          <mxGeometry y="78" width="300" height="32" as="geometry" />
        </mxCell>
        <mxCell id="I3O4Nhu3E_oi3L7Ds6Jt-183" value="Visit Website" style="rounded=1;whiteSpace=wrap;html=1;" vertex="1" parent="I3O4Nhu3E_oi3L7Ds6Jt-182">
          <mxGeometry width="300" height="32" as="geometry" />
        </mxCell>
        <mxCell id="I3O4Nhu3E_oi3L7Ds6Jt-184" value="" style="verticalLabelPosition=bottom;shadow=0;dashed=0;align=center;html=1;verticalAlign=top;strokeWidth=1;shape=mxgraph.mockup.graphics.simpleIcon;strokeColor=#999999;aspect=fixed;" vertex="1" parent="I3O4Nhu3E_oi3L7Ds6Jt-182">
          <mxGeometry x="87.72113550510532" y="8" width="15.737704918032785" height="15.737704918032785" as="geometry" />
        </mxCell>
        <mxCell id="I3O4Nhu3E_oi3L7Ds6Jt-197" value="" style="group" vertex="1" connectable="0" parent="I3O4Nhu3E_oi3L7Ds6Jt-213">
          <mxGeometry x="285" width="31" height="51" as="geometry" />
        </mxCell>
        <mxCell id="I3O4Nhu3E_oi3L7Ds6Jt-196" value="" style="endArrow=none;html=1;rounded=0;entryX=0;entryY=1;entryDx=0;entryDy=0;exitX=0.917;exitY=0.832;exitDx=0;exitDy=0;exitPerimeter=0;" edge="1" parent="I3O4Nhu3E_oi3L7Ds6Jt-197" source="I3O4Nhu3E_oi3L7Ds6Jt-195" target="I3O4Nhu3E_oi3L7Ds6Jt-195">
          <mxGeometry width="50" height="50" relative="1" as="geometry">
            <mxPoint x="61" y="161" as="sourcePoint" />
            <mxPoint x="121" y="131" as="targetPoint" />
            <Array as="points">
              <mxPoint x="31" y="51" />
              <mxPoint x="15" y="31" />
              <mxPoint x="1" y="51" />
            </Array>
          </mxGeometry>
        </mxCell>
        <mxCell id="I3O4Nhu3E_oi3L7Ds6Jt-195" value="&lt;font style=&quot;font-size: 10px;&quot;&gt;Level&lt;/font&gt;" style="ellipse;whiteSpace=wrap;html=1;aspect=fixed;" vertex="1" parent="I3O4Nhu3E_oi3L7Ds6Jt-197">
          <mxGeometry width="30" height="30" as="geometry" />
        </mxCell>
        <mxCell id="I3O4Nhu3E_oi3L7Ds6Jt-212" value="" style="group" vertex="1" connectable="0" parent="I3O4Nhu3E_oi3L7Ds6Jt-213">
          <mxGeometry x="22" y="19.5" width="251" height="49" as="geometry" />
        </mxCell>
        <mxCell id="I3O4Nhu3E_oi3L7Ds6Jt-194" value="&lt;b&gt;&lt;font style=&quot;font-size: 24px;&quot;&gt;Business Name&lt;/font&gt;&lt;/b&gt;" style="text;html=1;align=center;verticalAlign=middle;whiteSpace=wrap;rounded=0;" vertex="1" parent="I3O4Nhu3E_oi3L7Ds6Jt-212">
          <mxGeometry x="63" y="9.5" width="188" height="30" as="geometry" />
        </mxCell>
        <mxCell id="I3O4Nhu3E_oi3L7Ds6Jt-210" value="" style="ellipse;whiteSpace=wrap;html=1;aspect=fixed;" vertex="1" parent="I3O4Nhu3E_oi3L7Ds6Jt-212">
          <mxGeometry width="49" height="49" as="geometry" />
        </mxCell>
        <mxCell id="I3O4Nhu3E_oi3L7Ds6Jt-214" value="" style="group" vertex="1" connectable="0" parent="I3O4Nhu3E_oi3L7Ds6Jt-236">
          <mxGeometry y="130" width="316" height="110" as="geometry" />
        </mxCell>
        <mxCell id="I3O4Nhu3E_oi3L7Ds6Jt-215" value="" style="rounded=1;whiteSpace=wrap;html=1;" vertex="1" parent="I3O4Nhu3E_oi3L7Ds6Jt-214">
          <mxGeometry y="11" width="300" height="99" as="geometry" />
        </mxCell>
        <mxCell id="I3O4Nhu3E_oi3L7Ds6Jt-216" value="" style="group" vertex="1" connectable="0" parent="I3O4Nhu3E_oi3L7Ds6Jt-214">
          <mxGeometry y="78" width="300" height="32" as="geometry" />
        </mxCell>
        <mxCell id="I3O4Nhu3E_oi3L7Ds6Jt-217" value="Visit Website" style="rounded=1;whiteSpace=wrap;html=1;" vertex="1" parent="I3O4Nhu3E_oi3L7Ds6Jt-216">
          <mxGeometry width="300" height="32" as="geometry" />
        </mxCell>
        <mxCell id="I3O4Nhu3E_oi3L7Ds6Jt-218" value="" style="verticalLabelPosition=bottom;shadow=0;dashed=0;align=center;html=1;verticalAlign=top;strokeWidth=1;shape=mxgraph.mockup.graphics.simpleIcon;strokeColor=#999999;aspect=fixed;" vertex="1" parent="I3O4Nhu3E_oi3L7Ds6Jt-216">
          <mxGeometry x="87.72113550510532" y="8" width="15.737704918032785" height="15.737704918032785" as="geometry" />
        </mxCell>
        <mxCell id="I3O4Nhu3E_oi3L7Ds6Jt-219" value="" style="group" vertex="1" connectable="0" parent="I3O4Nhu3E_oi3L7Ds6Jt-214">
          <mxGeometry x="285" width="31" height="51" as="geometry" />
        </mxCell>
        <mxCell id="I3O4Nhu3E_oi3L7Ds6Jt-220" value="" style="endArrow=none;html=1;rounded=0;entryX=0;entryY=1;entryDx=0;entryDy=0;exitX=0.917;exitY=0.832;exitDx=0;exitDy=0;exitPerimeter=0;" edge="1" parent="I3O4Nhu3E_oi3L7Ds6Jt-219" source="I3O4Nhu3E_oi3L7Ds6Jt-221" target="I3O4Nhu3E_oi3L7Ds6Jt-221">
          <mxGeometry width="50" height="50" relative="1" as="geometry">
            <mxPoint x="61" y="161" as="sourcePoint" />
            <mxPoint x="121" y="131" as="targetPoint" />
            <Array as="points">
              <mxPoint x="31" y="51" />
              <mxPoint x="15" y="31" />
              <mxPoint x="1" y="51" />
            </Array>
          </mxGeometry>
        </mxCell>
        <mxCell id="I3O4Nhu3E_oi3L7Ds6Jt-221" value="&lt;font style=&quot;font-size: 10px;&quot;&gt;Level&lt;/font&gt;" style="ellipse;whiteSpace=wrap;html=1;aspect=fixed;" vertex="1" parent="I3O4Nhu3E_oi3L7Ds6Jt-219">
          <mxGeometry width="30" height="30" as="geometry" />
        </mxCell>
        <mxCell id="I3O4Nhu3E_oi3L7Ds6Jt-222" value="" style="group" vertex="1" connectable="0" parent="I3O4Nhu3E_oi3L7Ds6Jt-214">
          <mxGeometry x="22" y="19.5" width="251" height="49" as="geometry" />
        </mxCell>
        <mxCell id="I3O4Nhu3E_oi3L7Ds6Jt-223" value="&lt;b&gt;&lt;font style=&quot;font-size: 24px;&quot;&gt;Business Name&lt;/font&gt;&lt;/b&gt;" style="text;html=1;align=center;verticalAlign=middle;whiteSpace=wrap;rounded=0;" vertex="1" parent="I3O4Nhu3E_oi3L7Ds6Jt-222">
          <mxGeometry x="63" y="9.5" width="188" height="30" as="geometry" />
        </mxCell>
        <mxCell id="I3O4Nhu3E_oi3L7Ds6Jt-224" value="" style="ellipse;whiteSpace=wrap;html=1;aspect=fixed;" vertex="1" parent="I3O4Nhu3E_oi3L7Ds6Jt-222">
          <mxGeometry width="49" height="49" as="geometry" />
        </mxCell>
        <mxCell id="I3O4Nhu3E_oi3L7Ds6Jt-225" value="" style="group" vertex="1" connectable="0" parent="I3O4Nhu3E_oi3L7Ds6Jt-236">
          <mxGeometry y="260" width="316" height="110" as="geometry" />
        </mxCell>
        <mxCell id="I3O4Nhu3E_oi3L7Ds6Jt-226" value="" style="rounded=1;whiteSpace=wrap;html=1;" vertex="1" parent="I3O4Nhu3E_oi3L7Ds6Jt-225">
          <mxGeometry y="11" width="300" height="99" as="geometry" />
        </mxCell>
        <mxCell id="I3O4Nhu3E_oi3L7Ds6Jt-227" value="" style="group" vertex="1" connectable="0" parent="I3O4Nhu3E_oi3L7Ds6Jt-225">
          <mxGeometry y="78" width="300" height="32" as="geometry" />
        </mxCell>
        <mxCell id="I3O4Nhu3E_oi3L7Ds6Jt-228" value="Visit Website" style="rounded=1;whiteSpace=wrap;html=1;" vertex="1" parent="I3O4Nhu3E_oi3L7Ds6Jt-227">
          <mxGeometry width="300" height="32" as="geometry" />
        </mxCell>
        <mxCell id="I3O4Nhu3E_oi3L7Ds6Jt-229" value="" style="verticalLabelPosition=bottom;shadow=0;dashed=0;align=center;html=1;verticalAlign=top;strokeWidth=1;shape=mxgraph.mockup.graphics.simpleIcon;strokeColor=#999999;aspect=fixed;" vertex="1" parent="I3O4Nhu3E_oi3L7Ds6Jt-227">
          <mxGeometry x="87.72113550510532" y="8" width="15.737704918032785" height="15.737704918032785" as="geometry" />
        </mxCell>
        <mxCell id="I3O4Nhu3E_oi3L7Ds6Jt-230" value="" style="group" vertex="1" connectable="0" parent="I3O4Nhu3E_oi3L7Ds6Jt-225">
          <mxGeometry x="285" width="31" height="51" as="geometry" />
        </mxCell>
        <mxCell id="I3O4Nhu3E_oi3L7Ds6Jt-231" value="" style="endArrow=none;html=1;rounded=0;entryX=0;entryY=1;entryDx=0;entryDy=0;exitX=0.917;exitY=0.832;exitDx=0;exitDy=0;exitPerimeter=0;" edge="1" parent="I3O4Nhu3E_oi3L7Ds6Jt-230" source="I3O4Nhu3E_oi3L7Ds6Jt-232" target="I3O4Nhu3E_oi3L7Ds6Jt-232">
          <mxGeometry width="50" height="50" relative="1" as="geometry">
            <mxPoint x="61" y="161" as="sourcePoint" />
            <mxPoint x="121" y="131" as="targetPoint" />
            <Array as="points">
              <mxPoint x="31" y="51" />
              <mxPoint x="15" y="31" />
              <mxPoint x="1" y="51" />
            </Array>
          </mxGeometry>
        </mxCell>
        <mxCell id="I3O4Nhu3E_oi3L7Ds6Jt-232" value="&lt;font style=&quot;font-size: 10px;&quot;&gt;Level&lt;/font&gt;" style="ellipse;whiteSpace=wrap;html=1;aspect=fixed;" vertex="1" parent="I3O4Nhu3E_oi3L7Ds6Jt-230">
          <mxGeometry width="30" height="30" as="geometry" />
        </mxCell>
        <mxCell id="I3O4Nhu3E_oi3L7Ds6Jt-233" value="" style="group" vertex="1" connectable="0" parent="I3O4Nhu3E_oi3L7Ds6Jt-225">
          <mxGeometry x="22" y="19.5" width="251" height="49" as="geometry" />
        </mxCell>
        <mxCell id="I3O4Nhu3E_oi3L7Ds6Jt-234" value="&lt;b&gt;&lt;font style=&quot;font-size: 24px;&quot;&gt;Business Name&lt;/font&gt;&lt;/b&gt;" style="text;html=1;align=center;verticalAlign=middle;whiteSpace=wrap;rounded=0;" vertex="1" parent="I3O4Nhu3E_oi3L7Ds6Jt-233">
          <mxGeometry x="63" y="9.5" width="188" height="30" as="geometry" />
        </mxCell>
        <mxCell id="I3O4Nhu3E_oi3L7Ds6Jt-235" value="" style="ellipse;whiteSpace=wrap;html=1;aspect=fixed;" vertex="1" parent="I3O4Nhu3E_oi3L7Ds6Jt-233">
          <mxGeometry width="49" height="49" as="geometry" />
        </mxCell>
        <mxCell id="I3O4Nhu3E_oi3L7Ds6Jt-243" value="" style="verticalLabelPosition=bottom;verticalAlign=top;html=1;shape=mxgraph.basic.rect;fillColor2=none;strokeWidth=1;size=20;indent=5;strokeColor=#666666;fillColor=#f5f5f5;fontColor=#333333;movable=1;resizable=1;rotatable=1;deletable=1;editable=1;locked=0;connectable=1;shadow=1;" vertex="1" parent="1">
          <mxGeometry x="53" y="2210" width="526" height="390" as="geometry" />
        </mxCell>
        <mxCell id="I3O4Nhu3E_oi3L7Ds6Jt-254" value="" style="group" vertex="1" connectable="0" parent="1">
          <mxGeometry x="70" y="2220" width="500" height="111" as="geometry" />
        </mxCell>
        <mxCell id="I3O4Nhu3E_oi3L7Ds6Jt-250" value="&lt;font style=&quot;font-size: 16px;&quot;&gt;C³ | Curitiba Chamber Of Commerce&lt;/font&gt;" style="text;html=1;align=left;verticalAlign=middle;whiteSpace=wrap;rounded=0;fontStyle=1;fontSize=24;" vertex="1" parent="I3O4Nhu3E_oi3L7Ds6Jt-254">
          <mxGeometry width="500" height="30" as="geometry" />
        </mxCell>
        <mxCell id="I3O4Nhu3E_oi3L7Ds6Jt-251" value="&lt;span style=&quot;font-weight: normal;&quot;&gt;&lt;font&gt;Água Verde, Curitiba - PR, Brazil&lt;/font&gt;&lt;/span&gt;" style="text;html=1;align=left;verticalAlign=middle;whiteSpace=wrap;rounded=0;fontStyle=1;fontSize=12;" vertex="1" parent="I3O4Nhu3E_oi3L7Ds6Jt-254">
          <mxGeometry y="34" width="321.42857142857144" height="20" as="geometry" />
        </mxCell>
        <mxCell id="I3O4Nhu3E_oi3L7Ds6Jt-252" value="&lt;span style=&quot;font-weight: normal;&quot;&gt;&lt;font&gt;contact@cwbchamberofcommerce.com&lt;/font&gt;&lt;/span&gt;" style="text;html=1;align=left;verticalAlign=middle;whiteSpace=wrap;rounded=0;fontStyle=1;fontSize=12;" vertex="1" parent="I3O4Nhu3E_oi3L7Ds6Jt-254">
          <mxGeometry y="62" width="392.8571428571429" height="21" as="geometry" />
        </mxCell>
        <mxCell id="I3O4Nhu3E_oi3L7Ds6Jt-253" value="&lt;span style=&quot;font-weight: normal;&quot;&gt;&lt;font&gt;55 41 91824-4324&lt;/font&gt;&lt;/span&gt;" style="text;html=1;align=left;verticalAlign=middle;whiteSpace=wrap;rounded=0;fontStyle=1;fontSize=12;" vertex="1" parent="I3O4Nhu3E_oi3L7Ds6Jt-254">
          <mxGeometry y="90" width="178.57142857142858" height="21" as="geometry" />
        </mxCell>
        <mxCell id="I3O4Nhu3E_oi3L7Ds6Jt-260" value="" style="group" vertex="1" connectable="0" parent="1">
          <mxGeometry x="170" y="2353" width="266" height="56" as="geometry" />
        </mxCell>
        <mxCell id="I3O4Nhu3E_oi3L7Ds6Jt-261" value="" style="verticalLabelPosition=bottom;shadow=0;dashed=0;align=center;html=1;verticalAlign=top;strokeWidth=1;shape=mxgraph.mockup.graphics.simpleIcon;strokeColor=#999999;aspect=fixed;" vertex="1" parent="I3O4Nhu3E_oi3L7Ds6Jt-260">
          <mxGeometry width="56" height="56" as="geometry" />
        </mxCell>
        <mxCell id="I3O4Nhu3E_oi3L7Ds6Jt-262" value="" style="verticalLabelPosition=bottom;shadow=0;dashed=0;align=center;html=1;verticalAlign=top;strokeWidth=1;shape=mxgraph.mockup.graphics.simpleIcon;strokeColor=#999999;aspect=fixed;" vertex="1" parent="I3O4Nhu3E_oi3L7Ds6Jt-260">
          <mxGeometry x="105" width="56" height="56" as="geometry" />
        </mxCell>
        <mxCell id="I3O4Nhu3E_oi3L7Ds6Jt-263" value="" style="verticalLabelPosition=bottom;shadow=0;dashed=0;align=center;html=1;verticalAlign=top;strokeWidth=1;shape=mxgraph.mockup.graphics.simpleIcon;strokeColor=#999999;aspect=fixed;" vertex="1" parent="I3O4Nhu3E_oi3L7Ds6Jt-260">
          <mxGeometry x="210" width="56" height="56" as="geometry" />
        </mxCell>
        <mxCell id="I3O4Nhu3E_oi3L7Ds6Jt-265" value="&lt;span style=&quot;font-weight: normal;&quot;&gt;&lt;font style=&quot;font-size: 16px;&quot;&gt;WDD231 Class Project&lt;/font&gt;&lt;/span&gt;" style="text;html=1;align=left;verticalAlign=middle;whiteSpace=wrap;rounded=0;fontStyle=1;fontSize=24;flipV=1;" vertex="1" parent="1">
          <mxGeometry x="70" y="2440" width="165.5" height="30" as="geometry" />
        </mxCell>
        <mxCell id="I3O4Nhu3E_oi3L7Ds6Jt-266" value="&lt;span style=&quot;font-weight: normal;&quot;&gt;&lt;font style=&quot;font-size: 16px;&quot;&gt;Yuri Ziemba Nunes&lt;/font&gt;&lt;/span&gt;" style="text;html=1;align=left;verticalAlign=middle;whiteSpace=wrap;rounded=0;fontStyle=1;fontSize=24;flipV=1;" vertex="1" parent="1">
          <mxGeometry x="70" y="2484" width="165.5" height="30" as="geometry" />
        </mxCell>
        <mxCell id="I3O4Nhu3E_oi3L7Ds6Jt-267" value="&lt;span style=&quot;font-size: 16px; font-weight: 400;&quot;&gt;© 20xx Curitiba Chamber Of Commerce&lt;/span&gt;" style="text;html=1;align=left;verticalAlign=middle;whiteSpace=wrap;rounded=0;fontStyle=1;fontSize=24;flipV=1;" vertex="1" parent="1">
          <mxGeometry x="70" y="2524" width="286" height="30" as="geometry" />
        </mxCell>
        <mxCell id="I3O4Nhu3E_oi3L7Ds6Jt-268" value="&lt;span style=&quot;font-size: 16px; font-weight: 400;&quot;&gt;Last Modification at mm/dd/yyyy HH:mm:ss&lt;/span&gt;" style="text;html=1;align=left;verticalAlign=middle;whiteSpace=wrap;rounded=0;fontStyle=1;fontSize=24;flipV=1;" vertex="1" parent="1">
          <mxGeometry x="70" y="2560" width="326" height="30" as="geometry" />
        </mxCell>
      </root>
    </mxGraphModel>
  </diagram>
</mxfile>
